<svg xmlns="http://www.w3.org/2000/svg"  viewBox="0 0 40 40" width="160px" height="160px"><path fill="#e1ebf2" d="M20,38.5C9.799,38.5,1.5,30.201,1.5,20S9.799,1.5,20,1.5S38.5,9.799,38.5,20S30.201,38.5,20,38.5z M11.255,31.574l0.492,0.341C14.184,33.606,17.038,34.5,20,34.5s5.816-0.894,8.253-2.585l0.492-0.341L20,22.829L11.255,31.574z M22.829,20l8.745,8.745l0.341-0.492C33.606,25.816,34.5,22.962,34.5,20s-0.894-5.816-2.585-8.253l-0.341-0.492L22.829,20z M8.085,11.747C6.394,14.184,5.5,17.038,5.5,20s0.894,5.816,2.585,8.253l0.341,0.492L17.171,20l-8.745-8.745L8.085,11.747z M20,5.5 c-2.962,0-5.816,0.894-8.253,2.585l-0.492,0.341L20,17.171l8.745-8.745l-0.492-0.341C25.816,6.394,22.962,5.5,20,5.5z"/><path fill="#a3b7cc" d="M20,2c9.925,0,18,8.075,18,18s-8.075,18-18,18S2,29.925,2,20S10.075,2,20,2 M20,17.879l0.707-0.707 l7.968-7.968l0.846-0.846l-0.983-0.682C26.017,5.925,23.065,5,20,5s-6.017,0.925-8.538,2.675l-0.983,0.682l0.846,0.846l7.968,7.968 L20,17.879 M31.643,29.522l0.682-0.983C34.075,26.017,35,23.065,35,20s-0.925-6.017-2.675-8.538l-0.682-0.983l-0.846,0.846 l-7.968,7.968L22.121,20l0.707,0.707l7.968,7.968L31.643,29.522 M8.357,29.522l0.846-0.846l7.968-7.968L17.879,20l-0.707-0.707 l-7.968-7.968l-0.846-0.846l-0.682,0.983C5.925,13.983,5,16.935,5,20s0.925,6.017,2.675,8.538L8.357,29.522 M20,35 c3.065,0,6.017-0.925,8.538-2.675l0.983-0.682l-0.846-0.846l-7.968-7.968L20,22.121l-0.707,0.707l-7.968,7.968l-0.846,0.846 l0.983,0.682C13.983,34.075,16.935,35,20,35 M20,1C9.507,1,1,9.507,1,20s8.507,19,19,19s19-8.507,19-19S30.493,1,20,1L20,1z M20,16.464l-7.968-7.968C14.294,6.926,17.037,6,20,6s5.706,0.926,7.968,2.496L20,16.464L20,16.464z M31.504,27.968L23.536,20 l7.968-7.968C33.074,14.294,34,17.037,34,20S33.074,25.706,31.504,27.968L31.504,27.968z M8.496,27.968C6.926,25.706,6,22.963,6,20 s0.926-5.706,2.496-7.968L16.464,20L8.496,27.968L8.496,27.968z M20,34c-2.963,0-5.706-0.926-7.968-2.496L20,23.536l7.968,7.968 C25.706,33.074,22.963,34,20,34L20,34z"/><path fill="#a3b7cc" d="M31.656 9.063L31.656 9.063c.2.213.401.425.589.648C32.055 9.49 31.856 9.276 31.656 9.063zM30.937 31.656L30.937 31.656c-.213.2-.425.401-.648.589C30.51 32.055 30.724 31.856 30.937 31.656zM8.344 30.937L8.344 30.937c-.2-.213-.401-.425-.589-.648C7.945 30.51 8.144 30.724 8.344 30.937zM10.52 8.388C13.106 6.273 16.406 5 20 5c3.593 0 6.877 1.29 9.46 3.408l.715-.716C27.41 5.397 23.875 4 20 4c-3.875 0-7.428 1.379-10.196 3.671C9.547 7.884 8.915 8.428 8.672 8.656L20 20.042v-2.159l-9.503-9.518 0 0L10.52 8.388z"/><path fill="#a3b7cc" d="M7.671 30.196c.027.032.057.061.084.093-.027-.032-.05-.067-.077-.1L7.671 30.196zM32.329 9.804c-.027-.032-.057-.061-.084-.093.027.032.05.067.077.1L32.329 9.804z" opacity=".6"/><path fill="#a3b7cc" d="M20 20.042l-.004 2.076 9.515 9.526 0 0-.031-.031C26.894 33.727 23.594 35 20 35c-3.593 0-6.877-1.29-9.46-3.408l-.715.716C12.59 34.603 16.125 36 20 36c3.868 0 7.408-1.382 10.175-3.667l.022-.004c.032-.027.061-.057.093-.084.224-.188.779-.764.992-.964L20 20.042zM17.882 19.996L8.388 29.48C6.273 26.894 5 23.594 5 20c0-3.593 1.29-6.877 3.408-9.46L7.691 9.824C5.397 12.59 4 16.125 4 20c0 3.869 1.382 7.409 3.668 10.175l.003.021c.027.032.057.061.084.093.188.224.748.826.948 1.039L20 20.042 17.882 19.996z"/><path fill="#a3b7cc" d="M30.196,32.329c0.032-0.027,0.061-0.057,0.093-0.084c-0.032,0.027-0.067,0.05-0.1,0.077	L30.196,32.329z" opacity=".6"/><path fill="#a3b7cc" d="M32.328,9.818l0.002-0.014c-0.027-0.032-0.057-0.061-0.084-0.093	c-0.188-0.224-0.701-0.779-0.901-0.992L20,20.042L22.118,20l9.519-9.505l0,0l-0.024,0.024C33.727,13.106,35,16.406,35,20	c0,3.593-1.29,6.877-3.408,9.46l0.716,0.715C34.603,27.41,36,23.875,36,20C36,16.128,34.616,12.586,32.328,9.818z"/></svg>